<mxfile host="app.diagrams.net" modified="2023-05-04T13:24:20.819Z" agent="Mozilla/5.0 (Windows NT 10.0; Win64; x64) AppleWebKit/537.36 (KHTML, like Gecko) Chrome/112.0.0.0 Safari/537.36" etag="OA70xUdg3vqlGHStpwar" version="21.2.7" type="device">
  <diagram name="페이지-1" id="xWJRlBSn5MbIyY211qoy">
    <mxGraphModel dx="1500" dy="701" grid="1" gridSize="10" guides="1" tooltips="1" connect="1" arrows="1" fold="1" page="1" pageScale="1" pageWidth="827" pageHeight="1169" math="0" shadow="0">
      <root>
        <mxCell id="0" />
        <mxCell id="1" parent="0" />
        <mxCell id="T7xZ3N2vcR1zBjuw_6nf-6" style="edgeStyle=orthogonalEdgeStyle;rounded=0;orthogonalLoop=1;jettySize=auto;html=1;exitX=0.5;exitY=1;exitDx=0;exitDy=0;entryX=0.5;entryY=0;entryDx=0;entryDy=0;" parent="1" source="T7xZ3N2vcR1zBjuw_6nf-1" target="T7xZ3N2vcR1zBjuw_6nf-3" edge="1">
          <mxGeometry relative="1" as="geometry" />
        </mxCell>
        <mxCell id="T7xZ3N2vcR1zBjuw_6nf-1" value="segment1&lt;br&gt;음성1+음성2" style="rounded=0;whiteSpace=wrap;html=1;" parent="1" vertex="1">
          <mxGeometry x="160" y="130" width="120" height="60" as="geometry" />
        </mxCell>
        <mxCell id="T7xZ3N2vcR1zBjuw_6nf-7" style="edgeStyle=orthogonalEdgeStyle;rounded=0;orthogonalLoop=1;jettySize=auto;html=1;exitX=0.5;exitY=1;exitDx=0;exitDy=0;entryX=0.5;entryY=0;entryDx=0;entryDy=0;" parent="1" source="T7xZ3N2vcR1zBjuw_6nf-2" target="T7xZ3N2vcR1zBjuw_6nf-5" edge="1">
          <mxGeometry relative="1" as="geometry" />
        </mxCell>
        <mxCell id="T7xZ3N2vcR1zBjuw_6nf-2" value="segment2&lt;br&gt;음성2" style="rounded=0;whiteSpace=wrap;html=1;" parent="1" vertex="1">
          <mxGeometry x="344" y="130" width="120" height="60" as="geometry" />
        </mxCell>
        <mxCell id="T7xZ3N2vcR1zBjuw_6nf-9" style="edgeStyle=orthogonalEdgeStyle;rounded=0;orthogonalLoop=1;jettySize=auto;html=1;exitX=1;exitY=0.5;exitDx=0;exitDy=0;entryX=0;entryY=0.5;entryDx=0;entryDy=0;" parent="1" source="T7xZ3N2vcR1zBjuw_6nf-3" target="T7xZ3N2vcR1zBjuw_6nf-5" edge="1">
          <mxGeometry relative="1" as="geometry" />
        </mxCell>
        <mxCell id="T7xZ3N2vcR1zBjuw_6nf-3" value="음성1" style="rounded=1;whiteSpace=wrap;html=1;" parent="1" vertex="1">
          <mxGeometry x="185" y="245" width="70" height="30" as="geometry" />
        </mxCell>
        <mxCell id="T7xZ3N2vcR1zBjuw_6nf-8" style="edgeStyle=orthogonalEdgeStyle;rounded=0;orthogonalLoop=1;jettySize=auto;html=1;entryX=0;entryY=0.5;entryDx=0;entryDy=0;" parent="1" source="T7xZ3N2vcR1zBjuw_6nf-4" target="T7xZ3N2vcR1zBjuw_6nf-5" edge="1">
          <mxGeometry relative="1" as="geometry" />
        </mxCell>
        <mxCell id="fvoKd-Udhp-NeHIX_-BG-1" style="edgeStyle=orthogonalEdgeStyle;rounded=0;orthogonalLoop=1;jettySize=auto;html=1;" edge="1" parent="1" source="T7xZ3N2vcR1zBjuw_6nf-4">
          <mxGeometry relative="1" as="geometry">
            <mxPoint x="220" y="360" as="targetPoint" />
          </mxGeometry>
        </mxCell>
        <mxCell id="T7xZ3N2vcR1zBjuw_6nf-4" value="음성2" style="rounded=1;whiteSpace=wrap;html=1;" parent="1" vertex="1">
          <mxGeometry x="185" y="285" width="70" height="30" as="geometry" />
        </mxCell>
        <mxCell id="T7xZ3N2vcR1zBjuw_6nf-16" style="edgeStyle=orthogonalEdgeStyle;rounded=0;orthogonalLoop=1;jettySize=auto;html=1;exitX=1;exitY=0.5;exitDx=0;exitDy=0;entryX=0;entryY=0.5;entryDx=0;entryDy=0;" parent="1" source="T7xZ3N2vcR1zBjuw_6nf-5" target="T7xZ3N2vcR1zBjuw_6nf-13" edge="1">
          <mxGeometry relative="1" as="geometry" />
        </mxCell>
        <mxCell id="T7xZ3N2vcR1zBjuw_6nf-18" style="edgeStyle=orthogonalEdgeStyle;rounded=0;orthogonalLoop=1;jettySize=auto;html=1;exitX=1;exitY=0.5;exitDx=0;exitDy=0;entryX=0;entryY=0.5;entryDx=0;entryDy=0;" parent="1" source="T7xZ3N2vcR1zBjuw_6nf-5" target="T7xZ3N2vcR1zBjuw_6nf-14" edge="1">
          <mxGeometry relative="1" as="geometry" />
        </mxCell>
        <mxCell id="T7xZ3N2vcR1zBjuw_6nf-23" style="edgeStyle=orthogonalEdgeStyle;rounded=0;orthogonalLoop=1;jettySize=auto;html=1;exitX=1;exitY=0.5;exitDx=0;exitDy=0;entryX=0;entryY=0.5;entryDx=0;entryDy=0;" parent="1" source="T7xZ3N2vcR1zBjuw_6nf-5" target="T7xZ3N2vcR1zBjuw_6nf-12" edge="1">
          <mxGeometry relative="1" as="geometry" />
        </mxCell>
        <mxCell id="fvoKd-Udhp-NeHIX_-BG-28" style="edgeStyle=orthogonalEdgeStyle;rounded=0;orthogonalLoop=1;jettySize=auto;html=1;" edge="1" parent="1" source="T7xZ3N2vcR1zBjuw_6nf-5">
          <mxGeometry relative="1" as="geometry">
            <mxPoint x="404" y="360" as="targetPoint" />
          </mxGeometry>
        </mxCell>
        <mxCell id="T7xZ3N2vcR1zBjuw_6nf-5" value="음성2" style="rounded=1;whiteSpace=wrap;html=1;" parent="1" vertex="1">
          <mxGeometry x="369" y="265" width="70" height="30" as="geometry" />
        </mxCell>
        <mxCell id="T7xZ3N2vcR1zBjuw_6nf-10" value="화자 인식" style="text;html=1;strokeColor=none;fillColor=none;align=center;verticalAlign=middle;whiteSpace=wrap;rounded=0;" parent="1" vertex="1">
          <mxGeometry x="260" y="305" width="60" height="30" as="geometry" />
        </mxCell>
        <mxCell id="T7xZ3N2vcR1zBjuw_6nf-15" style="edgeStyle=orthogonalEdgeStyle;rounded=0;orthogonalLoop=1;jettySize=auto;html=1;exitX=0.5;exitY=1;exitDx=0;exitDy=0;entryX=0.5;entryY=0;entryDx=0;entryDy=0;" parent="1" source="T7xZ3N2vcR1zBjuw_6nf-11" target="T7xZ3N2vcR1zBjuw_6nf-12" edge="1">
          <mxGeometry relative="1" as="geometry" />
        </mxCell>
        <mxCell id="T7xZ3N2vcR1zBjuw_6nf-11" value="segment3&lt;br&gt;음성1+음성2+음성3" style="rounded=0;whiteSpace=wrap;html=1;" parent="1" vertex="1">
          <mxGeometry x="520" y="130" width="120" height="60" as="geometry" />
        </mxCell>
        <mxCell id="T7xZ3N2vcR1zBjuw_6nf-12" value="음성1" style="rounded=1;whiteSpace=wrap;html=1;" parent="1" vertex="1">
          <mxGeometry x="545" y="220" width="70" height="30" as="geometry" />
        </mxCell>
        <mxCell id="T7xZ3N2vcR1zBjuw_6nf-13" value="음성2" style="rounded=1;whiteSpace=wrap;html=1;" parent="1" vertex="1">
          <mxGeometry x="545" y="265" width="70" height="30" as="geometry" />
        </mxCell>
        <mxCell id="fvoKd-Udhp-NeHIX_-BG-30" style="edgeStyle=orthogonalEdgeStyle;rounded=0;orthogonalLoop=1;jettySize=auto;html=1;" edge="1" parent="1" source="T7xZ3N2vcR1zBjuw_6nf-14">
          <mxGeometry relative="1" as="geometry">
            <mxPoint x="580" y="360" as="targetPoint" />
          </mxGeometry>
        </mxCell>
        <mxCell id="T7xZ3N2vcR1zBjuw_6nf-14" value="음성3" style="rounded=1;whiteSpace=wrap;html=1;" parent="1" vertex="1">
          <mxGeometry x="545" y="305" width="70" height="30" as="geometry" />
        </mxCell>
        <mxCell id="T7xZ3N2vcR1zBjuw_6nf-19" value="화자 인식" style="text;html=1;strokeColor=none;fillColor=none;align=center;verticalAlign=middle;whiteSpace=wrap;rounded=0;" parent="1" vertex="1">
          <mxGeometry x="450" y="325" width="60" height="30" as="geometry" />
        </mxCell>
        <mxCell id="T7xZ3N2vcR1zBjuw_6nf-20" value="화자 분리" style="text;html=1;strokeColor=none;fillColor=none;align=center;verticalAlign=middle;whiteSpace=wrap;rounded=0;" parent="1" vertex="1">
          <mxGeometry x="40" y="190" width="60" height="30" as="geometry" />
        </mxCell>
        <mxCell id="fvoKd-Udhp-NeHIX_-BG-9" value="원본 음성" style="rounded=0;whiteSpace=wrap;html=1;" vertex="1" parent="1">
          <mxGeometry x="164" y="20" width="480" height="60" as="geometry" />
        </mxCell>
        <mxCell id="fvoKd-Udhp-NeHIX_-BG-11" value="" style="endArrow=classic;html=1;rounded=0;exitX=0.119;exitY=1.01;exitDx=0;exitDy=0;exitPerimeter=0;" edge="1" parent="1" source="fvoKd-Udhp-NeHIX_-BG-9" target="T7xZ3N2vcR1zBjuw_6nf-1">
          <mxGeometry width="50" height="50" relative="1" as="geometry">
            <mxPoint x="390" y="250" as="sourcePoint" />
            <mxPoint x="440" y="200" as="targetPoint" />
          </mxGeometry>
        </mxCell>
        <mxCell id="fvoKd-Udhp-NeHIX_-BG-12" value="" style="endArrow=classic;html=1;rounded=0;entryX=0.5;entryY=0;entryDx=0;entryDy=0;exitX=0.5;exitY=1;exitDx=0;exitDy=0;" edge="1" parent="1" source="fvoKd-Udhp-NeHIX_-BG-9" target="T7xZ3N2vcR1zBjuw_6nf-2">
          <mxGeometry width="50" height="50" relative="1" as="geometry">
            <mxPoint x="227" y="91" as="sourcePoint" />
            <mxPoint x="229" y="140" as="targetPoint" />
          </mxGeometry>
        </mxCell>
        <mxCell id="fvoKd-Udhp-NeHIX_-BG-14" value="" style="endArrow=classic;html=1;rounded=0;exitX=0.119;exitY=1.01;exitDx=0;exitDy=0;exitPerimeter=0;" edge="1" parent="1">
          <mxGeometry width="50" height="50" relative="1" as="geometry">
            <mxPoint x="580.5" y="81" as="sourcePoint" />
            <mxPoint x="579.5" y="130" as="targetPoint" />
          </mxGeometry>
        </mxCell>
        <mxCell id="fvoKd-Udhp-NeHIX_-BG-17" value="VAD" style="text;html=1;strokeColor=none;fillColor=none;align=center;verticalAlign=middle;whiteSpace=wrap;rounded=0;" vertex="1" parent="1">
          <mxGeometry x="40" y="90" width="60" height="30" as="geometry" />
        </mxCell>
        <mxCell id="fvoKd-Udhp-NeHIX_-BG-18" value="&lt;span style=&quot;color: rgb(0, 0, 0); font-family: Helvetica; font-size: 12px; font-style: normal; font-variant-ligatures: normal; font-variant-caps: normal; font-weight: 400; letter-spacing: normal; orphans: 2; text-align: center; text-indent: 0px; text-transform: none; widows: 2; word-spacing: 0px; -webkit-text-stroke-width: 0px; background-color: rgb(251, 251, 251); text-decoration-thickness: initial; text-decoration-style: initial; text-decoration-color: initial; float: none; display: inline !important;&quot;&gt;VAD&lt;/span&gt;" style="text;html=1;strokeColor=none;fillColor=none;align=center;verticalAlign=middle;whiteSpace=wrap;rounded=0;" vertex="1" parent="1">
          <mxGeometry x="40" y="390" width="60" height="30" as="geometry" />
        </mxCell>
        <mxCell id="fvoKd-Udhp-NeHIX_-BG-20" value="음성2" style="rounded=1;whiteSpace=wrap;html=1;" vertex="1" parent="1">
          <mxGeometry x="185" y="370" width="70" height="30" as="geometry" />
        </mxCell>
        <mxCell id="fvoKd-Udhp-NeHIX_-BG-37" style="edgeStyle=orthogonalEdgeStyle;rounded=0;orthogonalLoop=1;jettySize=auto;html=1;exitX=0.5;exitY=1;exitDx=0;exitDy=0;entryX=0.08;entryY=-0.077;entryDx=0;entryDy=0;entryPerimeter=0;" edge="1" parent="1" source="fvoKd-Udhp-NeHIX_-BG-21" target="fvoKd-Udhp-NeHIX_-BG-34">
          <mxGeometry relative="1" as="geometry" />
        </mxCell>
        <mxCell id="fvoKd-Udhp-NeHIX_-BG-21" value="음성1" style="rounded=1;whiteSpace=wrap;html=1;" vertex="1" parent="1">
          <mxGeometry x="185" y="410" width="70" height="30" as="geometry" />
        </mxCell>
        <mxCell id="fvoKd-Udhp-NeHIX_-BG-38" style="edgeStyle=orthogonalEdgeStyle;rounded=0;orthogonalLoop=1;jettySize=auto;html=1;entryX=0.5;entryY=0;entryDx=0;entryDy=0;" edge="1" parent="1" source="fvoKd-Udhp-NeHIX_-BG-29" target="fvoKd-Udhp-NeHIX_-BG-34">
          <mxGeometry relative="1" as="geometry" />
        </mxCell>
        <mxCell id="fvoKd-Udhp-NeHIX_-BG-29" value="음성2" style="rounded=1;whiteSpace=wrap;html=1;" vertex="1" parent="1">
          <mxGeometry x="370" y="370" width="70" height="30" as="geometry" />
        </mxCell>
        <mxCell id="fvoKd-Udhp-NeHIX_-BG-31" value="음성3" style="rounded=1;whiteSpace=wrap;html=1;" vertex="1" parent="1">
          <mxGeometry x="545" y="370" width="70" height="30" as="geometry" />
        </mxCell>
        <mxCell id="fvoKd-Udhp-NeHIX_-BG-32" value="음성2" style="rounded=1;whiteSpace=wrap;html=1;" vertex="1" parent="1">
          <mxGeometry x="545" y="410" width="70" height="30" as="geometry" />
        </mxCell>
        <mxCell id="fvoKd-Udhp-NeHIX_-BG-40" style="edgeStyle=orthogonalEdgeStyle;rounded=0;orthogonalLoop=1;jettySize=auto;html=1;exitX=0.5;exitY=1;exitDx=0;exitDy=0;entryX=0.904;entryY=-0.05;entryDx=0;entryDy=0;entryPerimeter=0;" edge="1" parent="1" source="fvoKd-Udhp-NeHIX_-BG-33" target="fvoKd-Udhp-NeHIX_-BG-34">
          <mxGeometry relative="1" as="geometry" />
        </mxCell>
        <mxCell id="fvoKd-Udhp-NeHIX_-BG-33" value="음성1" style="rounded=1;whiteSpace=wrap;html=1;" vertex="1" parent="1">
          <mxGeometry x="545" y="450" width="70" height="30" as="geometry" />
        </mxCell>
        <mxCell id="fvoKd-Udhp-NeHIX_-BG-53" style="edgeStyle=orthogonalEdgeStyle;rounded=0;orthogonalLoop=1;jettySize=auto;html=1;" edge="1" parent="1" source="fvoKd-Udhp-NeHIX_-BG-34">
          <mxGeometry relative="1" as="geometry">
            <mxPoint x="405" y="600" as="targetPoint" />
          </mxGeometry>
        </mxCell>
        <mxCell id="fvoKd-Udhp-NeHIX_-BG-34" value="whisper AI" style="rounded=1;whiteSpace=wrap;html=1;" vertex="1" parent="1">
          <mxGeometry x="185" y="510" width="440" height="60" as="geometry" />
        </mxCell>
        <mxCell id="fvoKd-Udhp-NeHIX_-BG-41" value="" style="rounded=0;whiteSpace=wrap;html=1;fillColor=#dae8fc;strokeColor=#6c8ebf;opacity=30;" vertex="1" parent="1">
          <mxGeometry x="120" y="357.5" width="560" height="135" as="geometry" />
        </mxCell>
        <mxCell id="fvoKd-Udhp-NeHIX_-BG-42" value="음성 순서 설정" style="text;html=1;strokeColor=none;fillColor=none;align=center;verticalAlign=middle;whiteSpace=wrap;rounded=0;" vertex="1" parent="1">
          <mxGeometry x="20" y="400" width="100" height="40" as="geometry" />
        </mxCell>
        <mxCell id="fvoKd-Udhp-NeHIX_-BG-43" value="" style="rounded=0;whiteSpace=wrap;html=1;fillColor=#f8cecc;strokeColor=#b85450;opacity=30;" vertex="1" parent="1">
          <mxGeometry x="120" y="212.5" width="560" height="135" as="geometry" />
        </mxCell>
        <mxCell id="fvoKd-Udhp-NeHIX_-BG-44" value="" style="rounded=0;whiteSpace=wrap;html=1;fillColor=#fff2cc;strokeColor=#d6b656;opacity=30;" vertex="1" parent="1">
          <mxGeometry x="120" y="200" width="560" height="10" as="geometry" />
        </mxCell>
        <mxCell id="fvoKd-Udhp-NeHIX_-BG-45" value="화자 인식" style="text;html=1;strokeColor=none;fillColor=none;align=center;verticalAlign=middle;whiteSpace=wrap;rounded=0;" vertex="1" parent="1">
          <mxGeometry x="40" y="265" width="60" height="25" as="geometry" />
        </mxCell>
        <mxCell id="fvoKd-Udhp-NeHIX_-BG-46" value="" style="rounded=0;whiteSpace=wrap;html=1;fillColor=#d5e8d4;strokeColor=#82b366;opacity=30;" vertex="1" parent="1">
          <mxGeometry x="120" y="90" width="560" height="20" as="geometry" />
        </mxCell>
        <mxCell id="fvoKd-Udhp-NeHIX_-BG-47" value="json" style="shape=note;whiteSpace=wrap;html=1;backgroundOutline=1;darkOpacity=0.05;size=14;" vertex="1" parent="1">
          <mxGeometry x="760" y="177.5" width="40" height="55" as="geometry" />
        </mxCell>
        <mxCell id="fvoKd-Udhp-NeHIX_-BG-51" value="" style="endArrow=classic;html=1;rounded=0;exitX=0;exitY=0.5;exitDx=0;exitDy=0;exitPerimeter=0;entryX=1;entryY=0.5;entryDx=0;entryDy=0;" edge="1" parent="1" source="fvoKd-Udhp-NeHIX_-BG-47" target="fvoKd-Udhp-NeHIX_-BG-44">
          <mxGeometry relative="1" as="geometry">
            <mxPoint x="360" y="330" as="sourcePoint" />
            <mxPoint x="460" y="330" as="targetPoint" />
          </mxGeometry>
        </mxCell>
        <mxCell id="fvoKd-Udhp-NeHIX_-BG-52" value="화자 수" style="edgeLabel;resizable=0;html=1;align=center;verticalAlign=middle;" connectable="0" vertex="1" parent="fvoKd-Udhp-NeHIX_-BG-51">
          <mxGeometry relative="1" as="geometry" />
        </mxCell>
        <mxCell id="fvoKd-Udhp-NeHIX_-BG-56" value="음성 대본" style="rounded=0;whiteSpace=wrap;html=1;" vertex="1" parent="1">
          <mxGeometry x="345" y="610" width="120" height="60" as="geometry" />
        </mxCell>
        <mxCell id="fvoKd-Udhp-NeHIX_-BG-57" value="" style="endArrow=classic;html=1;rounded=0;exitX=0.075;exitY=1.057;exitDx=0;exitDy=0;exitPerimeter=0;entryX=0;entryY=0.5;entryDx=0;entryDy=0;" edge="1" parent="1" source="fvoKd-Udhp-NeHIX_-BG-34" target="fvoKd-Udhp-NeHIX_-BG-56">
          <mxGeometry width="50" height="50" relative="1" as="geometry">
            <mxPoint x="360" y="500" as="sourcePoint" />
            <mxPoint x="410" y="450" as="targetPoint" />
          </mxGeometry>
        </mxCell>
        <mxCell id="fvoKd-Udhp-NeHIX_-BG-58" value="" style="endArrow=classic;html=1;rounded=0;exitX=0.895;exitY=1.03;exitDx=0;exitDy=0;exitPerimeter=0;entryX=1;entryY=0.5;entryDx=0;entryDy=0;" edge="1" parent="1" source="fvoKd-Udhp-NeHIX_-BG-34" target="fvoKd-Udhp-NeHIX_-BG-56">
          <mxGeometry width="50" height="50" relative="1" as="geometry">
            <mxPoint x="228" y="583" as="sourcePoint" />
            <mxPoint x="355" y="650" as="targetPoint" />
          </mxGeometry>
        </mxCell>
        <mxCell id="fvoKd-Udhp-NeHIX_-BG-59" value="" style="rounded=0;whiteSpace=wrap;html=1;" vertex="1" parent="1">
          <mxGeometry x="10" width="30" height="10" as="geometry" />
        </mxCell>
        <mxCell id="fvoKd-Udhp-NeHIX_-BG-60" value="" style="rounded=0;whiteSpace=wrap;html=1;" vertex="1" parent="1">
          <mxGeometry x="827" y="760" width="30" height="10" as="geometry" />
        </mxCell>
      </root>
    </mxGraphModel>
  </diagram>
</mxfile>
